# xmcd
#
# Track frame offsets:
#	150
#	21110
#	39610
#	61735
#
# Disc length: 1060 seconds
#
# Revision: 0
# Processed by: cddbd v1.4PL0 Copyright (c) Steve Scherf et al.
# Submitted via: MusicWizard 6.0.2
#
DISCID=29042204
DTITLE=Various Artist - Mini Kuschelrock
DYEAR=1900
DGENRE=Pop
TTITLE0=Meat Loaf - Heaven Can Wait
TTITLE1=Dave Loggins - Please Comt To Boston
TTITLE2=Toto - I Won´t Hold You Back
TTITLE3=Marvin Gaye - Sexual Healing
EXTD=
EXTT0=
EXTT1=
EXTT2=
EXTT3=
PLAYORDER=
